# xmcd CD database file
#
# Track frame offsets:
#	150
#	10028
#	24797
#	40197
#	56374
#	72110
#	86820
#	99974
#	116154
#	132001
#	150110
#	169319
#	179272
#	192685
#	206263
#	218308
#	227894
#	242690
#	252469
#	265713
#	281902
#	292366
#	305327
#	319044
#
# Disc length: 4449 seconds
#
# Revision: 5
# Processed by: cddbd v1.5.2PL0 Copyright (c) Steve Scherf et al.
# Submitted via: CDex 1.51
#
DISCID=4a115f18
DTITLE=Ray Charles - Modern Sounds in Country and Western Music (Volumes 1 and 2)
DYEAR=1962
DGENRE=Country
TTITLE0=Bye Bye Love
TTITLE1=You Don't Know Me
TTITLE2=Half As Much
TTITLE3=I Love You So Much It Hurts
TTITLE4=Just a Little Lovin'
TTITLE5=Born to Lose
TTITLE6=Worried Mind
TTITLE7=It Makes No Difference Now
TTITLE8=You Win Again
TTITLE9=Careless Love
TTITLE10=I Can't Stop Loving You
TTITLE11=Hey, Good Lookin'
TTITLE12=You Are My Sunshine
TTITLE13=No Letter Today
TTITLE14=Someday (You'll Want Me to Want You)
TTITLE15=Don't Tell Me Your Troubles
TTITLE16=Midnight
TTITLE17=Oh, Lonesome Me
TTITLE18=Take These Chains From My Heart
TTITLE19=Your Cheating Heart
TTITLE20=I'll Never Stand in Your Way
TTITLE21=Making Believe
TTITLE22=Teardrops in My Heart
TTITLE23=Hang Your Head in Shame
EXTD=Part of 4-disk box set YEAR: 1962
EXTT0=
EXTT1=
EXTT2=
EXTT3=
EXTT4=
EXTT5=
EXTT6=
EXTT7=
EXTT8=
EXTT9=
EXTT10=
EXTT11=
EXTT12=
EXTT13=
EXTT14=
EXTT15=
EXTT16=
EXTT17=
EXTT18=
EXTT19=
EXTT20=
EXTT21=
EXTT22=
EXTT23=
PLAYORDER=
